<svg width="18" height="18" viewBox="0 0 18 18" fill="none" xmlns="http://www.w3.org/2000/svg">
<path fill-rule="evenodd" clip-rule="evenodd" d="M9.93714 1.24214C9.93714 0.556132 9.38103 0 8.69499 0C8.00896 0 7.45285 0.556132 7.45285 1.24214V7.45286C7.45285 8.1389 8.00896 8.695 8.69499 8.695C9.38103 8.695 9.93714 8.1389 9.93714 7.45286V1.24214ZM4.30336 13.0866C1.87793 10.6612 1.87793 6.72882 4.30336 4.30337C4.78844 3.81827 4.78844 3.0318 4.30336 2.5467C3.81828 2.06162 3.03179 2.06162 2.54671 2.5467C-0.848903 5.94232 -0.848903 11.4477 2.54671 14.8432C5.94232 18.2389 11.4477 18.2389 14.8434 14.8432C18.2389 11.4477 18.2389 5.94232 14.8434 2.5467C14.3582 2.06162 13.5718 2.06162 13.0866 2.5467C12.6015 3.0318 12.6015 3.81827 13.0866 4.30337C15.5121 6.72882 15.5121 10.6612 13.0866 13.0866C10.6612 15.5121 6.72881 15.5121 4.30336 13.0866Z" fill="black"/>
</svg>
