<svg width="101" height="100" viewBox="0 0 101 100" fill="none" xmlns="http://www.w3.org/2000/svg">
<path fill-rule="evenodd" clip-rule="evenodd" d="M68.5316 36.0631C68.5316 46.0215 60.4584 54.0947 50.5 54.0947C40.5414 54.0947 32.4684 46.0215 32.4684 36.0631C32.4684 26.1046 40.5414 18.0316 50.5 18.0316C60.4584 18.0316 68.5316 26.1046 68.5316 36.0631ZM59.5158 36.0631C59.5158 41.0425 55.4794 45.0789 50.5 45.0789C45.5206 45.0789 41.4842 41.0425 41.4842 36.0631C41.4842 31.0838 45.5206 27.0473 50.5 27.0473C55.4794 27.0473 59.5158 31.0838 59.5158 36.0631Z" fill="black"/>
<path fill-rule="evenodd" clip-rule="evenodd" d="M50.5 0C23.114 0 0.913223 22.2008 0.913223 49.5868C0.913223 76.9726 23.114 99.1736 50.5 99.1736C77.8859 99.1736 100.087 76.9726 100.087 49.5868C100.087 22.2008 77.8859 0 50.5 0ZM9.929 49.5868C9.929 59.0092 13.1411 67.6814 18.53 74.5681C25.9431 64.8636 37.6357 58.6026 50.7908 58.6026C63.7748 58.6026 75.3349 64.7022 82.7607 74.1922C87.9741 67.3672 91.071 58.8388 91.071 49.5868C91.071 27.18 72.9069 9.01578 50.5 9.01578C28.0933 9.01578 9.929 27.18 9.929 49.5868ZM50.5 90.1578C40.807 90.1578 31.9079 86.7584 24.9298 81.087C30.6361 72.9431 40.0916 67.6183 50.7908 67.6183C61.3568 67.6183 70.7102 72.8119 76.4375 80.7854C69.4056 86.6376 60.3637 90.1578 50.5 90.1578Z" fill="black"/>
</svg>
