<svg width="41" height="57" viewBox="0 0 41 57" fill="none" xmlns="http://www.w3.org/2000/svg">
<path d="M20.1621 56.9876L3.67425 52.4104L0 11.1994H40.3737L36.6956 52.404L20.1621 56.9876Z" fill="#264DE4"/>
<path d="M33.5466 49.7802L36.6898 14.569H20.1868V53.4841L33.5466 49.7802Z" fill="#2965F1"/>
<path d="M8.4231 29.8536L8.8761 34.9079H20.1868V29.8536H8.4231Z" fill="#EBEBEB"/>
<path d="M7.51294 19.6234L7.9724 24.6778H20.1869V19.6234H7.51294Z" fill="#EBEBEB"/>
<path d="M20.1869 42.9803L20.1648 42.9862L14.5357 41.4663L14.1758 37.4352H9.10205L9.81017 45.3713L20.1637 48.2455L20.1869 48.239V42.9803Z" fill="#EBEBEB"/>
<path d="M9.50171 0H15.6234V2.55999H12.0617V5.11998H15.6234V7.67997H9.50171V0Z" fill="black"/>
<path d="M16.8477 0H22.9694V2.22608H19.4076V2.67129H22.9694V7.79127H16.8477V5.45389H20.4094V5.00868H16.8477V0Z" fill="black"/>
<path d="M24.1938 0H30.3156V2.22608H26.7538V2.67129H30.3156V7.79127H24.1938V5.45389H27.7556V5.00868H24.1938V0Z" fill="black"/>
<path d="M31.9182 29.8536L32.8307 19.6234H20.1694V24.6778H27.2915L26.8316 29.8536H20.1694V34.9079H26.3933L25.8066 41.463L20.1694 42.9845V48.243L30.5312 45.3712L30.6072 44.5173L31.7949 31.2108L31.9182 29.8536Z" fill="white"/>
</svg>
