<svg width="41" height="61" viewBox="0 0 41 61" fill="none" xmlns="http://www.w3.org/2000/svg">
<path d="M30.2802 40.3737C35.8546 40.3737 40.3736 35.8547 40.3736 30.2803C40.3736 24.7058 35.8546 20.1868 30.2802 20.1868C24.7057 20.1868 20.1868 24.7058 20.1868 30.2803C20.1868 35.8547 24.7057 40.3737 30.2802 40.3737Z" fill="#19BCFE"/>
<path fill-rule="evenodd" clip-rule="evenodd" d="M10.0934 60.5606C15.6679 60.5606 20.1869 56.0416 20.1869 50.4671C20.1869 48.9454 20.1869 45.5809 20.1869 40.3737C15.6525 40.3737 12.288 40.3737 10.0934 40.3737C4.51898 40.3737 0 44.8927 0 50.4671C0 56.0416 4.51898 60.5606 10.0934 60.5606Z" fill="#09CF83"/>
<path fill-rule="evenodd" clip-rule="evenodd" d="M10.0934 40.3737H20.1869V20.1868C15.316 20.1868 11.9516 20.1868 10.0934 20.1868C4.51898 20.1868 0 24.7058 0 30.2803C0 35.8547 4.51898 40.3737 10.0934 40.3737Z" fill="#A259FF"/>
<path fill-rule="evenodd" clip-rule="evenodd" d="M10.0934 20.1869H20.1869V0C15.316 0 11.9516 0 10.0934 0C4.51898 0 0 4.51898 0 10.0934C0 15.6679 4.51898 20.1869 10.0934 20.1869Z" fill="#F24E1E"/>
<path fill-rule="evenodd" clip-rule="evenodd" d="M30.2802 20.1869H20.1868V0H30.2802C35.8546 0 40.3736 4.51898 40.3736 10.0934C40.3736 15.6679 35.8546 20.1869 30.2802 20.1869Z" fill="#FF7262"/>
</svg>
