<svg width="41" height="41" viewBox="0 0 41 41" fill="none" xmlns="http://www.w3.org/2000/svg">
<path d="M39.6122 18.3879L21.9844 0.761494C20.97 -0.253831 19.3234 -0.253831 18.3076 0.761494L14.6472 4.42189L19.2906 9.06528C20.3697 8.7007 21.607 8.94523 22.4673 9.80551C23.3316 10.6711 23.5743 11.919 23.2009 13.0017L27.6759 17.4767C28.7586 17.1037 30.0078 17.3451 30.8725 18.2112C32.081 19.4192 32.081 21.3772 30.8725 22.5861C29.6636 23.795 27.7056 23.795 26.4963 22.5861C25.5872 21.6762 25.3627 20.3411 25.8229 19.2212L21.6495 15.0478L21.6491 26.0303C21.9437 26.1765 22.2219 26.371 22.4673 26.6155C23.6758 27.8236 23.6758 29.7816 22.4673 30.9914C21.2584 32.1998 19.2995 32.1998 18.0924 30.9914C16.8839 29.7816 16.8839 27.8236 18.0924 26.6155C18.3909 26.3174 18.7365 26.0919 19.105 25.9404V14.8556C18.7365 14.7049 18.3914 14.4808 18.0924 14.1804C17.1767 13.2661 16.9565 11.9225 17.4257 10.7982L12.8487 6.22042L0.761826 18.3064C-0.253942 19.3226 -0.253942 20.9692 0.761826 21.9845L18.3896 39.6114C19.4045 40.6268 21.0506 40.6268 22.0668 39.6114L39.6122 22.0665C40.6275 21.0507 40.6275 19.4033 39.6122 18.3879" fill="#DE4C36"/>
</svg>
