<svg width="41" height="40" viewBox="0 0 41 40" fill="none" xmlns="http://www.w3.org/2000/svg">
<path d="M20.1869 0C17.5359 0 14.9109 0.522148 12.4617 1.53663C10.0125 2.55112 7.78711 4.03807 5.91259 5.91259C2.12682 9.69836 0 14.833 0 20.1869C0 29.1094 5.79363 36.6795 13.8078 39.3644C14.8171 39.5259 15.1401 38.9001 15.1401 38.355C15.1401 37.8907 15.1401 36.6189 15.1401 34.9434C9.54838 36.1546 8.35736 32.2384 8.35736 32.2384C7.42876 29.8967 6.11662 29.2709 6.11662 29.2709C4.27961 28.0193 6.25792 28.0597 6.25792 28.0597C8.27661 28.201 9.34651 30.139 9.34651 30.139C11.1028 33.2074 14.0702 32.299 15.2209 31.8145C15.4026 30.5023 15.9274 29.6141 16.4927 29.1094C12.0112 28.6048 7.30764 26.8687 7.30764 19.1775C7.30764 16.9368 8.07474 15.1401 9.38689 13.7069C9.18502 13.2022 8.47848 11.1028 9.58875 8.37754C9.58875 8.37754 11.2844 7.8325 15.1401 10.4366C16.7349 9.99249 18.471 9.77044 20.1869 9.77044C21.9027 9.77044 23.6388 9.99249 25.2336 10.4366C29.0893 7.8325 30.7849 8.37754 30.7849 8.37754C31.8952 11.1028 31.1887 13.2022 30.9868 13.7069C32.299 15.1401 33.0661 16.9368 33.0661 19.1775C33.0661 26.8889 28.3423 28.5846 23.8407 29.0893C24.5674 29.715 25.2336 30.9464 25.2336 32.8238V38.355C25.2336 38.9001 25.5566 39.546 26.5861 39.3644C34.6003 36.6593 40.3737 29.1094 40.3737 20.1869C40.3737 17.5359 39.8516 14.9109 38.8371 12.4617C37.8226 10.0125 36.3356 7.78711 34.4611 5.91259C32.5866 4.03807 30.3612 2.55112 27.912 1.53663C25.4628 0.522148 22.8378 0 20.1869 0V0Z" fill="black"/>
</svg>
