<svg width="41" height="57" viewBox="0 0 41 57" fill="none" xmlns="http://www.w3.org/2000/svg">
<path d="M40.3737 11.1994L36.6956 52.404L20.1621 56.9876L3.67425 52.4104L0 11.1994H40.3737Z" fill="#E44D26"/>
<path d="M20.1868 53.4841L33.5466 49.7802L36.6898 14.569H20.1868V53.4841Z" fill="#F16529"/>
<path d="M13.0367 24.6778H20.1869V19.6234H7.51294L7.63393 20.9794L8.87619 34.9079H20.1869V29.8536H13.4986L13.0367 24.6778Z" fill="#EBEBEB"/>
<path d="M14.1758 37.4352H9.10205L9.81017 45.3713L20.1637 48.2455L20.1869 48.239V42.9803L20.1648 42.9862L14.5357 41.4663L14.1758 37.4352Z" fill="#EBEBEB"/>
<path d="M3.75635 0H6.32491V2.53773H8.67453V0H11.2432V7.68487H8.67464V5.11152H6.32502V7.68487H3.75646V0H3.75635Z" fill="black"/>
<path d="M14.6209 2.54841H12.3596V0H19.4519V2.54841H17.1897V7.68487H14.621V2.54841H14.6209Z" fill="black"/>
<path d="M20.5776 0H23.2559L24.9035 2.70023L26.5493 0H29.2286V7.68487H26.6706V3.87582L24.9035 6.60822H24.8593L23.0909 3.87582V7.68487H20.5776V0Z" fill="black"/>
<path d="M30.5068 0H33.0762V5.14469H36.6883V7.68487H30.5068V0Z" fill="black"/>
<path d="M20.1694 34.9079H26.3933L25.8066 41.463L20.1694 42.9845V48.243L30.5312 45.3712L30.6072 44.5173L31.7949 31.2108L31.9182 29.8536H20.1694V34.9079Z" fill="white"/>
<path d="M20.1694 24.6655V24.6778H32.3781L32.4795 23.5418L32.7098 20.9794L32.8307 19.6234H20.1694V24.6655Z" fill="white"/>
</svg>
