<svg width="41" height="41" viewBox="0 0 41 41" fill="none" xmlns="http://www.w3.org/2000/svg">
<path d="M0 0H40.3737V40.3737H0V0Z" fill="#F7DF1E"/>
<path d="M10.6158 33.7392L13.7055 31.8694C14.3015 32.9263 14.8437 33.8204 16.1444 33.8204C17.3911 33.8204 18.1771 33.3327 18.1771 31.4358V18.5355H21.9712V31.4895C21.9712 35.4192 19.6677 37.2079 16.307 37.2079C13.2719 37.2079 11.51 35.6359 10.6157 33.7389" fill="black"/>
<path d="M24.032 33.3326L27.1213 31.5439C27.9345 32.872 28.9915 33.8476 30.8614 33.8476C32.4334 33.8476 33.4359 33.0616 33.4359 31.9775C33.4359 30.6767 32.4061 30.2159 30.6716 29.4573L29.7233 29.0505C26.9859 27.8854 25.1701 26.4219 25.1701 23.3323C25.1701 20.4867 27.3381 18.3185 30.7259 18.3185C33.138 18.3185 34.8725 19.1587 36.119 21.3539L33.1649 23.2509C32.5144 22.0857 31.81 21.625 30.726 21.625C29.6148 21.625 28.9102 22.3296 28.9102 23.2509C28.9102 24.3892 29.6148 24.85 31.2407 25.5547L32.1892 25.9612C35.4143 27.3435 37.2301 28.7526 37.2301 31.9233C37.2301 35.3383 34.5472 37.2081 30.9427 37.2081C27.4196 37.2081 25.143 35.5279 24.032 33.3326" fill="black"/>
</svg>
