<svg width="34" height="35" viewBox="0 0 34 35" fill="none" xmlns="http://www.w3.org/2000/svg">
<path d="M29.5652 13.087H28.6227V9.0669C28.6227 4.06724 23.4091 0 17.0001 0C10.5917 0 5.37792 4.06724 5.37792 9.0669V13.087H4.43482C1.98565 13.087 0 14.6358 0 16.5467V27.2882C0 31.1741 4.03773 34.3242 9.01879 34.3242H24.9812C29.9623 34.3242 34 31.1741 34 27.2882V16.5467C34 14.6358 32.0146 13.087 29.5652 13.087V13.087ZM18.6514 23.7772V28.147C18.6514 28.8584 17.912 29.4352 17.0001 29.4352C16.0882 29.4352 15.3489 28.8584 15.3489 28.147V23.7772C14.0909 23.2987 13.2222 22.2946 13.2222 21.1294C13.2222 19.5018 14.9137 18.182 17.0001 18.182C19.0867 18.182 20.7783 19.5016 20.7783 21.1294C20.7783 22.2946 19.9091 23.2989 18.6514 23.7772ZM24.4196 13.087H9.58154V9.0669C9.58154 5.87544 12.9096 3.27899 17.0003 3.27899C21.0915 3.27899 24.4196 5.87544 24.4196 9.0669V13.087Z" fill="white"/>
</svg>
