<svg width="41" height="42" viewBox="0 0 41 42" fill="none" xmlns="http://www.w3.org/2000/svg">
<path fill-rule="evenodd" clip-rule="evenodd" d="M28.0286 32.7035C28.0855 32.5939 28.1402 32.4971 28.1867 32.397C28.216 32.3329 28.2612 32.3201 28.3249 32.3218C28.7069 32.3326 29.0889 32.3444 29.4713 32.3481C29.7959 32.3515 30.1213 32.3454 30.4463 32.3417C30.8125 32.3373 31.1786 32.3181 31.5444 32.3285C32.0316 32.3427 32.5063 32.4381 32.947 32.6549C33.4733 32.9142 33.8715 33.309 34.1429 33.8292C34.3162 34.1613 34.4167 34.5136 34.4568 34.8879C34.5148 35.43 34.4767 35.9597 34.3047 36.4783C34.0916 37.1209 33.6871 37.6128 33.125 37.9813C32.6924 38.2648 32.2181 38.4324 31.7096 38.5282C31.1715 38.6296 30.6317 38.5969 30.092 38.5986C29.4999 38.601 28.9082 38.5882 28.3162 38.5814C28.2127 38.5804 28.1978 38.5609 28.2251 38.4621L28.2504 38.371C28.3081 38.1897 28.3391 38.1816 28.5232 38.1512C28.6506 38.1307 28.7828 38.0828 28.8897 38.012C28.9517 37.9708 28.9773 37.8636 29.0016 37.781C29.0225 37.7089 29.0235 37.6296 29.0242 37.5534C29.0326 36.3987 29.0414 35.2443 29.0461 34.0902C29.0471 33.7985 29.0404 33.5062 29.0242 33.2149C29.0127 33.0109 28.9038 32.8714 28.6611 32.8231C28.4723 32.7857 28.2821 32.7567 28.0923 32.7233L28.0286 32.7035ZM33.4487 35.4995C33.4231 35.2696 33.4106 35.0376 33.3695 34.811C33.271 34.2672 33.033 33.7935 32.6149 33.4223C31.9389 32.8225 31.125 32.7301 30.272 32.8016C30.0778 32.8178 30.036 32.8842 30.033 33.0838C30.0282 33.367 30.0235 33.6502 30.0232 33.9334C30.0218 34.8316 30.0218 35.7298 30.0232 36.628C30.0235 36.8835 30.0262 37.1391 30.0336 37.394C30.0417 37.6549 30.1365 37.8758 30.392 37.9769C30.7949 38.1364 31.2187 38.1553 31.6415 38.0902C32.3169 37.9867 32.7892 37.5932 33.1061 37.0035C33.357 36.5356 33.4278 36.0248 33.4487 35.4995V35.4995ZM35.0903 38.5578C35.0822 38.4179 35.1395 38.3023 35.2103 38.1961C35.2295 38.1674 35.2956 38.1688 35.3411 38.1597L35.7275 38.0831C35.8641 38.0541 35.9359 37.9624 35.9551 37.8286C35.9679 37.7402 35.9801 37.6509 35.9811 37.5615C35.9895 36.8545 35.9976 36.1475 36.001 35.4405C36.0043 34.7325 36.0016 34.0244 36.0016 33.3164L35.9986 33.1812C35.9848 32.9536 35.8749 32.8356 35.649 32.8022L35.1591 32.7277C35.0987 32.7196 35.0768 32.6906 35.0987 32.637C35.1365 32.5457 35.1726 32.4509 35.2258 32.3687C35.2457 32.3383 35.3128 32.3265 35.358 32.3275C35.592 32.3309 35.826 32.3484 36.06 32.3481L38.0967 32.336C38.4892 32.3356 38.8681 32.4041 39.2201 32.5919C39.6075 32.7982 39.8243 33.1175 39.8863 33.5524C39.9511 34.0093 39.8125 34.3943 39.4787 34.7001C39.3415 34.8262 39.1638 34.9085 39.0047 35.011L38.9528 35.0433C39.1004 35.0976 39.241 35.1445 39.3779 35.2004C39.7785 35.3646 40.0971 35.6212 40.2656 36.0309C40.3988 36.3542 40.3988 36.6913 40.3199 37.0265C40.1972 37.5511 39.8516 37.9 39.4022 38.164C38.9804 38.4118 38.5239 38.5561 38.0377 38.5804C37.5893 38.603 37.1389 38.5946 36.6894 38.5996L36.4291 38.601C35.9962 38.5912 35.563 38.5801 35.1297 38.5686L35.0903 38.5578ZM36.9571 36.5049H36.9615C36.9615 36.7267 36.9585 36.9486 36.9625 37.1704C36.9652 37.3141 36.9602 37.4617 36.9912 37.6C37.0377 37.8067 37.1321 37.9931 37.3641 38.0524C37.6773 38.133 37.9973 38.1492 38.3142 38.0942C38.711 38.0251 39.0276 37.8262 39.2012 37.4483C39.33 37.1674 39.3493 36.8697 39.3051 36.5656C39.2464 36.165 39.0337 35.8744 38.68 35.6839C38.448 35.5588 38.2006 35.4823 37.9369 35.4722C37.6416 35.4611 37.3459 35.4604 37.0505 35.4513C36.9676 35.4489 36.9561 35.4911 36.9565 35.5592C36.9581 35.8741 36.9571 36.1893 36.9571 36.5049V36.5049ZM37.5859 34.9961C37.7474 34.988 37.9302 34.9857 38.1119 34.9675C38.4598 34.9327 38.7049 34.7577 38.8327 34.425C38.8978 34.2561 38.8951 34.0821 38.8968 33.9064C38.9018 33.4489 38.6348 33.074 38.2002 32.9189C37.8648 32.7992 37.5188 32.7972 37.1709 32.8066C37.03 32.8103 36.9669 32.872 36.9649 33.014L36.944 34.8646C36.943 34.9381 36.9747 34.9698 37.0461 34.9722L37.5859 34.9961Z" fill="#94795D"/>
<path fill-rule="evenodd" clip-rule="evenodd" d="M2.16337 38.2022L2.13876 38.5204C1.90949 38.5204 1.69809 38.5188 1.4867 38.5211C1.08852 38.5252 0.690334 38.5316 0.291816 38.5373L0.25338 38.5397C0.1964 38.5329 0.0928936 38.5329 0.0901964 38.5161C0.0733386 38.4213 0.0787331 38.3219 0.0831161 38.2238C0.0834533 38.2126 0.122226 38.1985 0.144816 38.1931L0.454662 38.124C0.647853 38.0737 0.715958 37.9904 0.725061 37.7908C0.735513 37.566 0.745965 37.3407 0.746976 37.1159C0.750011 36.5622 0.746639 36.0093 0.748999 35.4557C0.749337 35.3262 0.704495 35.2298 0.583793 35.1772C0.440164 35.1138 0.295862 35.0518 0.150547 34.9931C0.0817675 34.9655 -0.00757898 34.9503 0.000512767 34.8579C0.00860451 34.7639 0.0952537 34.7392 0.176846 34.7207C0.514676 34.6435 0.852844 34.5683 1.18966 34.486C1.29823 34.4594 1.40207 34.4146 1.53188 34.3694C1.53862 34.4395 1.55109 34.5063 1.54974 34.573L1.52985 34.8903C1.52952 34.926 1.54806 34.9739 1.57469 34.9938C1.59088 35.0063 1.64516 34.9837 1.67213 34.9628C1.96006 34.7436 2.26485 34.5545 2.61246 34.4442C3.1509 34.2733 3.61314 34.4318 3.93681 34.896C4.05077 35.0595 4.05111 35.0595 4.20923 34.9452C4.48064 34.748 4.76453 34.574 5.08213 34.4594C5.77937 34.2075 6.4493 34.5272 6.69171 35.2295C6.78005 35.4844 6.81376 35.7477 6.81309 36.0167L6.80668 37.803C6.80635 37.9503 6.85523 38.0343 6.99549 38.0801C7.15294 38.1317 7.31613 38.1671 7.49347 38.2136L7.45234 38.5208C7.25072 38.5208 7.06528 38.5194 6.87985 38.5211C6.42671 38.5252 5.97357 38.5275 5.52077 38.538C5.44188 38.54 5.42131 38.5204 5.41726 38.4466C5.40411 38.2103 5.40209 38.2106 5.62461 38.1573L5.69946 38.1381C5.91693 38.0788 5.98942 38.012 5.9911 37.7915C5.99616 37.1583 6.00931 36.5235 5.97728 35.8916C5.9439 35.2362 5.42367 34.8873 4.78847 35.0552C4.58112 35.1098 4.39332 35.2055 4.21867 35.3296C4.15967 35.3717 4.14854 35.4203 4.15326 35.4941C4.17113 35.7733 4.18226 36.0528 4.18462 36.3323C4.18867 36.8215 4.1826 37.3107 4.18462 37.8003C4.18529 37.9985 4.25306 38.0744 4.44895 38.1202L4.73992 38.1873L4.79386 38.1995C4.79791 38.2925 4.80162 38.3856 4.79723 38.4786C4.79454 38.537 4.74936 38.542 4.69878 38.541C4.41591 38.5339 4.1327 38.5245 3.84982 38.5252C3.50559 38.5258 3.16169 38.5356 2.81779 38.5417H2.73687C2.73687 38.4429 2.73215 38.3485 2.74024 38.2544C2.74193 38.2318 2.78171 38.2002 2.80902 38.1931L3.1482 38.1213C3.29217 38.0859 3.36095 38.012 3.36904 37.8657C3.40748 37.188 3.43512 36.51 3.3714 35.8326C3.35892 35.7012 3.31611 35.5676 3.26149 35.4466C3.08785 35.0629 2.69709 34.9028 2.24631 35.0181C2.03222 35.0727 1.83902 35.1708 1.65629 35.2945C1.56997 35.3532 1.52884 35.4308 1.52884 35.5289C1.52884 36.2049 1.5312 36.8809 1.53322 37.5565L1.53693 37.8171C1.54098 37.9989 1.61819 38.0946 1.79857 38.1337C1.91455 38.16 2.03188 38.1779 2.16337 38.2022V38.2022Z" fill="#50382B"/>
<path fill-rule="evenodd" clip-rule="evenodd" d="M22.5471 34.4385C22.5994 34.6927 22.5983 34.9213 22.4116 35.0946C22.2261 35.2669 21.9915 35.2089 21.7625 35.1704C21.7838 35.2911 21.8074 35.3936 21.8188 35.4975C21.9021 36.2692 21.57 36.8421 20.8542 37.1694C20.5838 37.2928 20.2969 37.3387 20.0039 37.3623C19.8583 37.3738 19.7308 37.485 19.717 37.6047C19.7029 37.7261 19.779 37.8508 19.9314 37.8872C20.1111 37.9301 20.2986 37.9422 20.483 37.9634C20.8789 38.0086 21.2791 38.0292 21.6702 38.1C22.2615 38.2065 22.5916 38.7227 22.4874 39.3168C22.3947 39.8454 22.0886 40.2301 21.6617 40.5251C20.9426 41.0235 20.1536 41.1691 19.3134 40.9149C18.833 40.7693 18.4941 40.4533 18.3772 39.9422C18.3185 39.6863 18.3809 39.4547 18.5734 39.281C18.8023 39.0754 19.0515 38.892 19.2912 38.6978L19.3687 38.6199L19.2797 38.5575C19.0353 38.4415 18.8397 38.2827 18.7639 38.0069C18.7379 37.9135 18.7649 37.8522 18.8441 37.8043C18.979 37.723 19.1132 37.6404 19.2463 37.5565C19.3091 37.5174 19.3711 37.4769 19.4294 37.4317C19.509 37.3711 19.5019 37.3259 19.4068 37.2908C19.1857 37.2092 18.9891 37.0909 18.8367 36.9088C18.5821 36.605 18.51 36.2433 18.5309 35.8613C18.5636 35.2645 18.8876 34.8714 19.4142 34.6185C20.0403 34.3181 20.6685 34.2992 21.3067 34.573C21.5427 34.6741 21.7915 34.6957 22.0447 34.6782C22.2339 34.6647 22.3991 34.5932 22.5471 34.4385V34.4385ZM20.2399 38.7139C19.7699 38.7099 19.6226 38.7679 19.3468 39.0487C19.038 39.3636 19.0397 39.8003 19.3478 40.1165C19.5818 40.3562 19.8738 40.4685 20.1985 40.5022C20.5778 40.5413 20.9513 40.5255 21.2959 40.3357C21.6634 40.1324 21.8462 39.7547 21.7636 39.3744C21.6951 39.0605 21.4638 38.9169 21.1823 38.8343C20.862 38.7406 20.5309 38.7227 20.2399 38.7139V38.7139ZM19.3168 35.7106C19.334 35.841 19.3411 35.9732 19.3701 36.101C19.4453 36.4321 19.5892 36.723 19.9186 36.8704C20.3054 37.044 20.7993 36.9695 20.9685 36.4267C21.0845 36.0548 21.0704 35.6856 20.9304 35.3228C20.8681 35.161 20.7676 35.0241 20.6236 34.9236C20.2878 34.6893 19.6819 34.6583 19.4352 35.1762C19.3549 35.3444 19.3236 35.5234 19.3168 35.7106V35.7106Z" fill="#4F382B"/>
<path fill-rule="evenodd" clip-rule="evenodd" d="M14.5729 34.3552C14.5854 34.4128 14.6104 34.4782 14.611 34.544C14.612 34.6691 14.5986 34.7941 14.5915 34.9192V35.0278L14.6973 34.9469C14.9873 34.7082 15.2988 34.5049 15.6616 34.3953C16.3164 34.1981 16.9704 34.5565 17.1839 35.2233C17.2648 35.4769 17.2968 35.7375 17.2998 36.0025C17.3066 36.5912 17.3106 37.1799 17.3167 37.7685C17.3187 37.9799 17.343 38.0177 17.5429 38.0787C17.6562 38.1134 17.7732 38.1377 17.8902 38.1559C17.9546 38.166 17.9823 38.1913 17.9789 38.2544L17.9796 38.3124C17.9772 38.5561 17.9603 38.5673 17.724 38.5666C17.1582 38.5656 16.5928 38.5689 16.0271 38.5737C15.8585 38.575 15.8582 38.5801 15.8413 38.4135L15.8379 38.3178C15.8484 38.1741 15.8518 38.1755 15.993 38.1546C16.0881 38.1404 16.1825 38.1185 16.2752 38.0942C16.3706 38.0696 16.4165 37.9992 16.4293 37.9047C16.4357 37.8569 16.4441 37.809 16.4438 37.7611C16.4357 37.1178 16.4462 36.4739 16.4111 35.8316C16.3828 35.312 15.9863 35.0025 15.4647 35.0379C15.2088 35.0558 14.9775 35.1411 14.7665 35.2884C14.6272 35.3859 14.5992 35.5264 14.5999 35.6778C14.6026 36.2793 14.6083 36.8808 14.6147 37.4826C14.6161 37.6145 14.6198 37.7463 14.6323 37.8771C14.6454 38.0201 14.6957 38.0777 14.8359 38.1087C14.9701 38.1384 15.107 38.1556 15.2503 38.1795L15.2624 38.2901C15.2671 38.548 15.2402 38.5673 14.9897 38.5662C14.4047 38.5639 13.8197 38.5676 13.2351 38.574C13.143 38.5754 13.1039 38.5464 13.1063 38.4567L13.1049 38.4182C13.0898 38.1859 13.0965 38.1772 13.3163 38.1394L13.4202 38.1185C13.6582 38.0649 13.7192 38.0015 13.7226 37.7598C13.7337 36.9941 13.7378 36.2287 13.7455 35.4631C13.7466 35.3532 13.7051 35.2679 13.6026 35.2223C13.459 35.1589 13.314 35.0986 13.1687 35.0389C13.0884 35.0059 12.9967 34.985 12.9937 34.8741C12.9917 34.7958 13.0753 34.7267 13.1896 34.7035C13.4192 34.6569 13.6508 34.6182 13.8777 34.5612C14.1036 34.5049 14.3255 34.4293 14.5729 34.3552Z" fill="#4F372B"/>
<path fill-rule="evenodd" clip-rule="evenodd" d="M27.2216 36.3552C27.2108 37.0703 27.0251 37.6485 26.5193 38.0825C25.8787 38.633 24.8794 38.8201 24.0625 38.4085C23.7138 38.2328 23.4576 37.9634 23.2907 37.6138C23.0348 37.076 22.9708 36.5106 23.1043 35.9314C23.2364 35.3586 23.5834 34.9435 24.1026 34.6748C24.6366 34.3987 25.199 34.2908 25.7921 34.4358C26.5422 34.6188 27.0814 35.2304 27.1886 36.0093C27.2078 36.1458 27.2152 36.2841 27.2216 36.3552V36.3552ZM26.3528 36.7426L26.3238 36.7392C26.3238 36.6718 26.3275 36.6044 26.3231 36.5369C26.2985 36.1168 26.2041 35.7166 25.9607 35.365C25.7297 35.0319 25.4151 34.8353 25.0058 34.8066C24.5476 34.7743 24.1626 35.0305 24.0274 35.4985C23.8244 36.2011 23.8932 36.8859 24.2499 37.5295C24.4054 37.81 24.6356 38.017 24.9441 38.1259C25.5486 38.3387 26.0847 38.0632 26.2422 37.4442C26.3002 37.2156 26.317 36.9766 26.3528 36.7426Z" fill="#4F382B"/>
<path fill-rule="evenodd" clip-rule="evenodd" d="M12.3711 36.4105C12.3587 36.9236 12.2376 37.398 11.9207 37.8103C11.5812 38.252 11.1146 38.488 10.5839 38.5875C9.95642 38.7048 9.36707 38.5983 8.86303 38.1772C8.62364 37.9769 8.46012 37.7203 8.35223 37.4283C8.17523 36.9496 8.13106 36.459 8.23996 35.959C8.35628 35.424 8.65837 35.015 9.12668 34.7405C9.66815 34.4239 10.2524 34.2827 10.8765 34.425C11.679 34.6084 12.1422 35.1313 12.3135 35.9229C12.3479 36.0828 12.3526 36.248 12.3711 36.4105V36.4105ZM11.4925 36.749L11.4692 36.7456V36.6492C11.4561 36.1785 11.3641 35.7301 11.0832 35.339C10.8752 35.0487 10.5967 34.8666 10.2396 34.8157C9.6577 34.7328 9.27739 35.078 9.15129 35.547C8.98676 36.1596 9.03835 36.7648 9.2929 37.3457C9.4517 37.7078 9.70254 37.99 10.0879 38.1269C10.6887 38.3404 11.2329 38.0578 11.385 37.4412C11.4409 37.2156 11.4578 36.9803 11.4925 36.749V36.749Z" fill="#4F372B"/>
<path fill-rule="evenodd" clip-rule="evenodd" d="M26.3777 10.2505C26.7914 11.4464 27.0888 12.6673 27.1869 13.9323C27.3083 15.5021 27.253 17.0611 26.9219 18.6049L26.8794 18.7283C26.7756 18.7287 26.6697 18.7155 26.5682 18.7314C25.7108 18.8662 24.8545 19.0058 23.9977 19.1447C23.112 19.2884 22.2256 19.4263 21.3416 19.5793C21.0284 19.6333 20.6407 19.5689 20.5142 20.0018L20.4536 20.0223L20.4964 17.4337L20.4529 11.1875L20.8656 11.1167C21.5402 11.0065 22.2149 10.8942 22.8905 10.7866C23.6963 10.6588 24.5028 10.5341 25.3093 10.4094C25.6653 10.3547 26.0217 10.3038 26.3777 10.2505V10.2505Z" fill="#439934"/>
<path fill-rule="evenodd" clip-rule="evenodd" d="M19.6018 27.5692C19.1665 27.195 18.7161 26.8373 18.299 26.4435C16.0543 24.3261 14.412 21.8335 13.6031 18.8285C13.3803 18.0018 13.2319 17.1612 13.184 16.3069C13.1503 15.7088 13.1021 15.1056 13.1446 14.5105C13.2569 12.9282 13.4858 11.3611 13.9497 9.83685L13.9753 9.80145C14.0205 9.86147 14.0853 9.91474 14.1082 9.98251C14.5613 11.3163 15.0108 12.6514 15.4582 13.9876C16.8638 18.1855 18.2677 22.3845 19.6756 26.5817C19.7033 26.6636 19.7744 26.7307 19.8257 26.8046L19.6018 27.5692Z" fill="#45A538"/>
<path fill-rule="evenodd" clip-rule="evenodd" d="M26.3776 10.2506C26.0212 10.3035 25.6648 10.3548 25.3091 10.4094C24.5026 10.5341 23.6962 10.6589 22.8903 10.7867C22.215 10.8939 21.5404 11.0062 20.8654 11.1167L20.4527 11.1875L20.4493 10.9185C20.4355 10.6973 20.4126 10.4761 20.4096 10.255L20.3634 6.02232C20.3526 5.13931 20.3364 4.25629 20.3185 3.37362C20.3074 2.82507 20.2956 2.27618 20.271 1.7283C20.2575 1.43396 20.21 1.14097 20.1911 0.846633C20.18 0.677381 20.1948 0.50678 20.1985 0.336853C20.4089 0.744475 20.6149 1.15513 20.831 1.55972C21.1725 2.1993 21.717 2.67065 22.2076 3.18481C24.1449 5.2182 25.5202 7.58099 26.3776 10.2506V10.2506Z" fill="#46A037"/>
<path fill-rule="evenodd" clip-rule="evenodd" d="M20.4537 20.0224L20.5144 20.0018C20.6409 19.5689 21.0286 19.6333 21.3418 19.5794C22.2258 19.4263 23.1122 19.2884 23.9979 19.1448C24.8546 19.0062 25.711 18.8666 26.5684 18.7314C26.6699 18.7156 26.7758 18.7287 26.8796 18.7284C26.7195 19.3002 26.5934 19.8845 26.3901 20.4405C26.1591 21.0709 25.8799 21.6866 25.5836 22.2901C25.1406 23.192 24.5886 24.0335 23.9474 24.8046C23.4531 25.3987 22.9022 25.9486 22.3503 26.4911C22.0448 26.7908 21.6854 27.0352 21.3502 27.3049L21.2633 27.2456L20.9507 26.9786L20.6274 26.2692C20.4045 25.4391 20.2879 24.5942 20.2683 23.7351L20.2744 23.5908L20.3185 22.9658C20.333 22.7523 20.3526 22.5392 20.3617 22.3258C20.3941 21.5585 20.4231 20.7904 20.4537 20.0224V20.0224Z" fill="#409433"/>
<path fill-rule="evenodd" clip-rule="evenodd" d="M20.4537 20.0224C20.4233 20.7904 20.3943 21.5588 20.3616 22.3268C20.3525 22.5406 20.3333 22.7537 20.3185 22.9667L20.1216 23.0412C19.684 21.753 19.246 20.4782 18.8178 19.2004C18.1094 17.0861 17.4098 14.9687 16.7025 12.8537C16.1317 11.1471 15.5558 9.44138 14.9769 7.73706C14.9496 7.65749 14.8721 7.59478 14.8181 7.52431L16.0791 5.20569C16.1226 5.28087 16.1796 5.35134 16.2069 5.43226C16.7901 7.1585 17.3724 8.88507 17.9496 10.6133C18.7008 12.8622 19.4469 15.112 20.1974 17.3612C20.2274 17.4509 20.2767 17.5338 20.3239 17.6346L20.4965 17.4337C20.482 18.2968 20.4678 19.1592 20.4537 20.0224Z" fill="#4FAA41"/>
<path fill-rule="evenodd" clip-rule="evenodd" d="M14.8177 7.52429C14.872 7.59476 14.9496 7.65747 14.9765 7.73704C15.5554 9.44136 16.1313 11.1467 16.7021 12.8537C17.4095 14.9687 18.1091 17.086 18.8174 19.2003C19.2456 20.4782 19.6836 21.7526 20.1212 23.0412L20.3181 22.9667L20.2739 23.5918L20.2338 23.7358C20.1654 24.4199 20.1077 25.1053 20.0241 25.788C19.9823 26.1303 19.893 26.4661 19.8252 26.8046C19.7743 26.7307 19.7028 26.6636 19.6752 26.5817C18.2669 22.3844 16.8633 18.1855 15.4577 13.9876C15.0103 12.6514 14.5605 11.3163 14.1077 9.9825C14.0848 9.91473 14.02 9.86146 13.9749 9.80144L14.8177 7.52429Z" fill="#4AA73C"/>
<path fill-rule="evenodd" clip-rule="evenodd" d="M20.4963 17.4337L20.3237 17.6346C20.2764 17.5338 20.2272 17.4509 20.1972 17.3612C19.4467 15.112 18.7006 12.8622 17.9494 10.6133C17.3722 8.88506 16.7899 7.15849 16.2066 5.43225C16.1793 5.35133 16.1224 5.28086 16.0789 5.20568L17.6382 3.15442C17.6874 3.21983 17.7576 3.27816 17.7828 3.35199C18.2158 4.6197 18.6446 5.88842 19.0715 7.15815C19.47 8.34426 19.8624 9.53173 20.2657 10.7158C20.2926 10.7951 20.3867 10.851 20.4494 10.9185L20.4528 11.1875L20.4963 17.4337Z" fill="#57AE47"/>
<path fill-rule="evenodd" clip-rule="evenodd" d="M20.4494 10.9185C20.3863 10.8514 20.2926 10.7954 20.2656 10.7158C19.8627 9.53174 19.47 8.34428 19.0714 7.15816C18.6446 5.88843 18.2157 4.61971 17.7828 3.35201C17.7575 3.27817 17.6874 3.21984 17.6382 3.15443C18.1453 2.6578 18.6365 2.1433 19.1642 1.6696C19.6331 1.24883 20.0101 0.797711 20.0276 0.132502L20.0647 0L20.1982 0.336482C20.1948 0.506408 20.1797 0.677009 20.1908 0.846262C20.21 1.1406 20.2575 1.43359 20.2707 1.72793C20.2953 2.2758 20.3071 2.82469 20.3182 3.37325C20.3361 4.25592 20.3523 5.13893 20.3631 6.02195L20.4093 10.2546C20.4126 10.4761 20.4359 10.6973 20.4494 10.9185V10.9185Z" fill="#60B24F"/>
<path fill-rule="evenodd" clip-rule="evenodd" d="M19.8255 26.8042C19.8933 26.4657 19.9826 26.1299 20.0244 25.7877C20.1081 25.1053 20.1657 24.4195 20.2342 23.7354L20.2514 23.7327L20.2682 23.7358C20.2878 24.5948 20.4044 25.4397 20.6273 26.2698C20.5818 26.3298 20.518 26.3828 20.4938 26.4502C20.3067 26.9782 20.13 27.5106 19.9418 28.0382C19.9162 28.1104 19.8441 28.1667 19.7938 28.2297L19.6013 27.5689L19.8255 26.8042Z" fill="#A9AA88"/>
<path fill-rule="evenodd" clip-rule="evenodd" d="M19.7939 28.2301C19.8442 28.1667 19.9163 28.1107 19.942 28.0386C20.1301 27.5109 20.3068 26.9786 20.4939 26.4506C20.5178 26.3832 20.5819 26.3302 20.6274 26.2702L20.9507 26.9796C20.887 27.0699 20.7987 27.1519 20.7633 27.2527L20.1443 29.0706C20.1186 29.1438 20.032 29.195 19.9733 29.2567L19.7939 28.2301Z" fill="#B6B598"/>
<path fill-rule="evenodd" clip-rule="evenodd" d="M19.9734 29.2564C20.0317 29.1947 20.1187 29.1435 20.1443 29.0703L20.7633 27.2523C20.7984 27.1515 20.8871 27.0696 20.9508 26.9792L21.2637 27.2459C21.1126 27.3953 21.0287 27.5679 21.0793 27.7861L20.9842 28.0973C20.941 28.1505 20.8783 28.1971 20.8571 28.2581C20.641 28.8771 20.435 29.4995 20.2172 30.1182C20.1895 30.1964 20.113 30.2581 20.0594 30.3275L19.9734 29.2564Z" fill="#C2C1A7"/>
<path fill-rule="evenodd" clip-rule="evenodd" d="M20.059 30.3272C20.113 30.2578 20.1895 30.1961 20.2168 30.1178C20.4346 29.4992 20.6409 28.8768 20.8567 28.2577C20.878 28.1967 20.9407 28.1505 20.9838 28.0969L20.8527 29.5251C20.8176 29.5656 20.767 29.601 20.7502 29.6478L20.3139 30.898C20.2832 30.9833 20.2246 31.0595 20.1787 31.1394C20.1379 31.0862 20.0651 31.0346 20.0617 30.9793C20.0489 30.7628 20.058 30.5447 20.059 30.3272V30.3272Z" fill="#CECDB7"/>
<path fill-rule="evenodd" clip-rule="evenodd" d="M20.179 31.1398C20.2248 31.0598 20.2835 30.9837 20.3142 30.8984L20.7504 29.6482C20.7673 29.601 20.8182 29.5659 20.8529 29.5255L20.8563 30.4627L20.5424 31.2675L20.179 31.1398Z" fill="#DBDAC7"/>
<path fill-rule="evenodd" clip-rule="evenodd" d="M20.5425 31.2675L20.8564 30.4627L20.9211 31.4148L20.5425 31.2675Z" fill="#EBE9DC"/>
<path fill-rule="evenodd" clip-rule="evenodd" d="M21.0788 27.786C21.0286 27.5682 21.1122 27.3956 21.2632 27.2459L21.3502 27.3052L21.0788 27.786Z" fill="#CECDB7"/>
<path fill-rule="evenodd" clip-rule="evenodd" d="M20.2682 23.7362L20.2513 23.7331L20.2341 23.7358L20.2743 23.5919L20.2682 23.7362Z" fill="#4FAA41"/>
</svg>
