<svg width="41" height="46" viewBox="0 0 41 46" fill="none" xmlns="http://www.w3.org/2000/svg">
<path d="M20.1869 45.5275C19.5727 45.5277 18.9692 45.3662 18.4373 45.0592L12.8698 41.7633C12.0389 41.2983 12.4438 41.134 12.7186 41.0381C13.6023 40.7651 14.4484 40.3827 15.2373 39.8999C15.3033 39.8693 15.3761 39.8561 15.4486 39.8616C15.5212 39.867 15.5912 39.8908 15.6519 39.9308L19.9299 42.4722C20.0096 42.5144 20.0984 42.5364 20.1885 42.5364C20.2786 42.5364 20.3674 42.5144 20.447 42.4722L37.1298 32.843C37.2079 32.7963 37.2725 32.73 37.3172 32.6508C37.362 32.5715 37.3854 32.482 37.3851 32.391V13.1294C37.3852 13.0369 37.3614 12.946 37.3161 12.8654C37.2708 12.7848 37.2056 12.7172 37.1266 12.6692L20.4438 3.04813C20.3651 3.00382 20.2763 2.98054 20.186 2.98054C20.0958 2.98054 20.007 3.00382 19.9283 3.04813L3.25527 12.6724C3.17574 12.7195 3.10971 12.7863 3.06356 12.8663C3.01741 12.9464 2.99271 13.037 2.99186 13.1294V32.3829C2.99209 32.4737 3.01645 32.5628 3.06245 32.6411C3.10845 32.7194 3.17444 32.784 3.25365 32.8284L7.82922 35.469C10.3089 36.708 11.8276 35.2479 11.8276 33.7812V14.7716C11.8276 14.7076 11.8402 14.6441 11.8647 14.5849C11.8892 14.5258 11.9251 14.472 11.9704 14.4267C12.0157 14.3814 12.0695 14.3455 12.1287 14.3209C12.1879 14.2964 12.2513 14.2838 12.3154 14.2838H14.4292C14.5585 14.2838 14.6826 14.3352 14.7741 14.4267C14.8656 14.5182 14.917 14.6422 14.917 14.7716V33.7829C14.917 37.0918 13.1154 38.9861 9.97717 38.9861C8.62333 39.0097 7.29071 38.6476 6.13493 37.9422L1.74959 35.4268C1.21722 35.1167 0.775481 34.6725 0.468476 34.1384C0.161471 33.6042 -5.8937e-05 32.9989 1.15638e-05 32.3829V13.1294C-0.00157084 12.5123 0.159276 11.9058 0.466388 11.3706C0.773501 10.8354 1.21606 10.3905 1.74959 10.0806L18.434 0.448145C18.9715 0.154111 19.5742 0 20.1869 0C20.7995 0 21.4022 0.154111 21.9397 0.448145L38.6225 10.0806C39.1548 10.39 39.5967 10.8336 39.9039 11.3672C40.2112 11.9007 40.3732 12.5055 40.3737 13.1212V32.3829C40.3728 32.9989 40.2107 33.604 39.9035 34.138C39.5962 34.672 39.1546 35.1163 38.6225 35.4268L21.9397 45.0592C21.4067 45.3667 20.8021 45.5282 20.1869 45.5275V45.5275Z" fill="#83CD29"/>
<path d="M17.0227 25.9391C17.0227 25.8097 17.0741 25.6856 17.1656 25.5941C17.2571 25.5027 17.3811 25.4513 17.5105 25.4513H19.6682C19.7835 25.4516 19.8949 25.4928 19.9827 25.5675C20.0705 25.6423 20.1291 25.7456 20.1479 25.8594C20.4731 28.0561 21.4487 29.1634 25.86 29.1634C29.3738 29.1634 30.8714 28.3683 30.8714 26.5033C30.8714 25.4285 30.447 24.6301 24.9852 24.0952C20.4194 23.6431 17.5967 22.6318 17.5967 18.983C17.5967 15.6172 20.4341 13.6091 25.1901 13.6091C30.5348 13.6091 33.1803 15.4643 33.5153 19.4448C33.5204 19.5113 33.5118 19.5781 33.4901 19.6411C33.4684 19.7041 33.434 19.762 33.3891 19.8112C33.3441 19.8604 33.2896 19.8999 33.2288 19.9272C33.168 19.9545 33.1022 19.9691 33.0356 19.97H30.8633C30.7543 19.9685 30.6489 19.9305 30.5641 19.8621C30.4792 19.7938 30.4197 19.6989 30.395 19.5928C29.8763 17.2822 28.6064 16.544 25.1918 16.544C21.3544 16.544 20.9089 17.8806 20.9089 18.8822C20.9089 20.0952 21.4357 20.4497 26.6161 21.1342C31.7429 21.8123 34.1787 22.7716 34.1787 26.3748C34.1787 30.0106 31.1478 32.0919 25.8617 32.0919C18.5528 32.1016 17.0227 28.7504 17.0227 25.9391V25.9391Z" fill="#83CD29"/>
</svg>
