<svg width="41" height="36" viewBox="0 0 41 36" fill="none" xmlns="http://www.w3.org/2000/svg">
<path d="M33.1953 11.6427C32.7765 11.4986 32.3425 11.3622 31.8956 11.2332C31.9691 10.9334 32.0365 10.6375 32.0964 10.3467C33.0802 5.57108 32.437 1.72381 30.2404 0.457121C28.1342 -0.757464 24.6897 0.508935 21.2109 3.53645C20.8763 3.82757 20.5409 4.1358 20.2055 4.45883C19.9821 4.24511 19.759 4.03857 19.5365 3.84101C15.8906 0.603797 12.2362 -0.76041 10.0418 0.509941C7.93759 1.72805 7.31446 5.34485 8.20004 9.87074C8.28556 10.3079 8.38553 10.7543 8.49857 11.2082C7.98136 11.355 7.48204 11.5116 7.00429 11.6781C2.72985 13.1683 0 15.5039 0 17.9266C0 20.4287 2.9305 22.9383 7.38266 24.4601C7.734 24.5801 8.09857 24.6937 8.47428 24.8015C8.35232 25.2924 8.24625 25.7735 8.15721 26.2427C7.3128 30.69 7.97223 34.2214 10.0708 35.4318C12.2385 36.6818 15.8764 35.3969 19.4188 32.3004C19.6988 32.0557 19.9798 31.7961 20.2613 31.524C20.6262 31.8753 20.9904 32.2079 21.3528 32.5198C24.784 35.4725 28.173 36.6648 30.2696 35.451C32.4351 34.1974 33.1389 30.4038 32.2252 25.7884C32.1554 25.4359 32.0742 25.0758 31.983 24.7093C32.2385 24.6338 32.4893 24.5558 32.7338 24.4747C37.3623 22.9412 40.3737 20.4621 40.3737 17.9266C40.3737 15.4952 37.5558 13.1438 33.1953 11.6427V11.6427ZM32.1914 22.8376C31.9706 22.9107 31.7441 22.9813 31.5133 23.0498C31.0023 21.4322 30.3127 19.7121 29.4688 17.935C30.2741 16.2002 30.9371 14.5021 31.4337 12.895C31.8467 13.0145 32.2476 13.1405 32.6339 13.2735C36.37 14.5597 38.649 16.4613 38.649 17.9266C38.649 19.4873 36.1877 21.5134 32.1914 22.8376V22.8376ZM30.5332 26.1234C30.9372 28.1643 30.9949 30.0094 30.7273 31.4519C30.4869 32.7481 30.0033 33.6122 29.4054 33.9583C28.133 34.6948 25.4121 33.7375 22.4776 31.2123C22.1412 30.9228 21.8024 30.6138 21.4624 30.2866C22.6001 29.0424 23.737 27.596 24.8467 25.9896C26.7985 25.8164 28.6424 25.5333 30.3147 25.1467C30.397 25.479 30.4702 25.8048 30.5332 26.1234ZM13.7643 33.8311C12.5212 34.2701 11.5311 34.2827 10.9326 33.9376C9.65911 33.203 9.12968 30.3677 9.85185 26.5643C9.93457 26.1288 10.033 25.6813 10.1465 25.224C11.8004 25.5897 13.6309 25.8529 15.5873 26.0115C16.7044 27.5834 17.8742 29.0282 19.0531 30.2933C18.7956 30.542 18.539 30.7787 18.2839 31.0018C16.7174 32.371 15.1477 33.3425 13.7643 33.8311V33.8311ZM7.94047 22.828C5.97181 22.1551 4.34601 21.2806 3.23161 20.3263C2.23025 19.4688 1.72468 18.6174 1.72468 17.9266C1.72468 16.4564 3.91648 14.5813 7.57202 13.3067C8.01557 13.1521 8.47988 13.0063 8.96174 12.8694C9.46695 14.5128 10.1297 16.2311 10.9295 17.9685C10.1193 19.7318 9.44718 21.4774 8.93702 23.14C8.5935 23.0413 8.2607 22.9374 7.94047 22.828V22.828ZM9.89267 9.53952C9.13392 5.66185 9.63784 2.73667 10.9059 2.00264C12.2566 1.22068 15.2434 2.33559 18.3913 5.13077C18.5925 5.30942 18.7945 5.49641 18.9971 5.68987C17.8241 6.94945 16.665 8.38343 15.5578 9.94606C13.659 10.1221 11.8414 10.4048 10.1702 10.7834C10.0651 10.3607 9.97208 9.94548 9.89267 9.53952V9.53952ZM27.3081 13.8398C26.9086 13.1498 26.4984 12.4761 26.0803 11.8207C27.3685 11.9836 28.6027 12.1997 29.7617 12.4643C29.4138 13.5795 28.9801 14.7455 28.4695 15.9408C28.1033 15.2455 27.716 14.5445 27.3081 13.8398ZM20.2061 6.9225C21.0017 7.78437 21.7983 8.74664 22.582 9.79069C21.7923 9.75339 20.9929 9.73399 20.1869 9.73399C19.3884 9.73399 18.5949 9.75296 17.8101 9.78961C18.5945 8.75526 19.3981 7.79429 20.2061 6.9225ZM13.0587 13.8518C12.6596 14.5437 12.2794 15.241 11.919 15.9395C11.4167 14.7483 10.987 13.577 10.636 12.446C11.788 12.1882 13.0163 11.9775 14.2963 11.8177C13.8723 12.4791 13.4588 13.1578 13.0587 13.8516V13.8518ZM14.3332 24.1584C13.0107 24.0109 11.7639 23.811 10.6123 23.5603C10.9688 22.4091 11.408 21.2128 11.9209 19.996C12.2823 20.694 12.664 21.3915 13.0655 22.085H13.0656C13.4745 22.7915 13.8983 23.4836 14.3332 24.1584ZM20.2538 29.0522C19.4364 28.1702 18.621 27.1946 17.8247 26.1451C18.5977 26.1755 19.3858 26.191 20.1869 26.191C21.0098 26.191 21.8233 26.1725 22.624 26.1368C21.8378 27.2051 21.044 28.1823 20.2538 29.0522V29.0522ZM28.486 19.934C29.0256 21.1639 29.4805 22.354 29.8417 23.4856C28.6711 23.7526 27.4072 23.9677 26.0756 24.1275C26.4947 23.4634 26.9084 22.7781 27.315 22.0731C27.7262 21.36 28.1168 20.6457 28.486 19.934ZM25.821 21.2115C25.1899 22.3058 24.5419 23.3504 23.8841 24.3365C22.6861 24.4221 21.4484 24.4662 20.1869 24.4662C18.9304 24.4662 17.7083 24.4272 16.5315 24.3508C15.8472 23.3518 15.1851 22.3041 14.5581 21.2209H14.5582C13.9328 20.1406 13.3571 19.0512 12.8355 17.968C13.357 16.8821 13.9311 15.7915 14.553 14.7132L14.5528 14.7134C15.1763 13.6322 15.8325 12.5896 16.5105 11.5969C17.7112 11.5061 18.9424 11.4587 20.1868 11.4587H20.1869C21.4368 11.4587 22.6696 11.5065 23.87 11.598C24.5376 12.5835 25.1893 13.6227 25.8153 14.7041C26.4483 15.7976 27.0299 16.8809 27.5558 17.9434C27.0315 19.0242 26.4512 20.1185 25.821 21.2115V21.2115ZM29.3789 1.95133C30.7309 2.73099 31.2567 5.87536 30.4072 9.99859C30.353 10.2617 30.292 10.5297 30.2258 10.8012C28.5507 10.4148 26.7319 10.1272 24.8275 9.9485C23.7181 8.3687 22.5685 6.93249 21.4146 5.68908C21.7248 5.39063 22.0346 5.10605 22.3432 4.83749C25.3238 2.24353 28.1096 1.21939 29.3789 1.95133ZM20.1869 14.3213C22.1779 14.3213 23.7921 15.9354 23.7921 17.9266C23.7921 19.9176 22.1779 21.5318 20.1869 21.5318C18.1958 21.5318 16.5816 19.9176 16.5816 17.9266C16.5816 15.9354 18.1958 14.3213 20.1869 14.3213Z" fill="#00D8FF"/>
</svg>
