<svg width="41" height="45" viewBox="0 0 41 45" fill="none" xmlns="http://www.w3.org/2000/svg">
<path d="M40.3737 17.8549L40.2797 17.7078C39.7442 16.8752 39.3788 16.362 38.9385 15.8179C37.6539 14.229 36.0984 12.9327 34.1927 11.8658C31.5742 10.3995 28.1774 9.26009 23.8831 8.40635C23.0742 8.24551 21.3052 7.94225 19.8611 7.71699L19.7162 7.46224C18.9271 6.06977 18.0551 4.34698 17.549 3.18107C17.157 2.27821 16.7807 1.23794 16.5718 0.484678C16.4478 0.0373548 16.4349 0.00829994 16.366 0.000257988C16.2181 -0.0170365 13.8423 0.83887 12.3159 1.45905C10.2478 2.29931 8.64196 3.10445 7.65133 3.79969C7.32896 4.02608 6.9343 4.41019 6.79465 4.62257C6.79361 4.61911 6.79214 4.616 6.79136 4.61236C6.79136 4.61236 6.77389 4.64047 6.75686 4.69088C6.75504 4.69468 6.75254 4.6991 6.75107 4.70273C6.72582 4.76957 6.7138 4.84783 6.71345 4.92807L6.72495 4.93906C6.72919 5.0136 6.74544 5.09843 6.78289 5.1919C6.86867 5.40627 7.1261 5.66387 7.4099 5.93678C7.4099 5.93678 10.3831 8.83698 10.7475 9.2575C12.3949 11.1587 13.1105 13.0306 13.1765 15.6147C13.2189 17.2729 12.899 18.7308 12.1223 20.425C10.73 23.4619 7.79661 26.8107 3.26605 30.5342L3.32225 30.5154C3.29415 30.5382 3.26475 30.5621 3.2376 30.5835C2.69697 31.0145 1.89295 31.8122 1.48211 32.3238C0.870667 33.0848 0.392646 33.8963 0.1871 34.5202C-0.182657 35.6429 -0.00244753 36.7801 0.710692 37.8298C1.62177 39.1703 3.43544 40.5326 5.54477 41.4597C6.62066 41.9329 8.43642 42.5426 9.79784 42.8864C12.0667 43.4594 16.4518 44.0817 18.8667 44.1744C19.3566 44.1931 20.0086 44.1914 20.0385 44.1718C20.0915 44.1367 20.4674 43.4246 20.9036 42.5336C22.388 39.5016 23.4617 36.6596 24.0394 34.2322C24.3897 32.7621 24.6623 30.802 24.8392 28.4778C24.8884 27.8272 24.9064 25.6561 24.8684 24.9181C24.8062 23.7169 24.7005 22.7384 24.531 21.7777C24.5188 21.7087 24.5106 21.6438 24.5067 21.5942C29.8813 19.9971 35.8246 18.5517 39.7631 17.9484L40.3737 17.8549ZM25.6785 9.84845C25.7403 9.84845 26.9589 10.1808 27.5894 10.3692C29.159 10.8387 30.9701 11.5003 32.1446 12.0337L32.6335 12.255L32.2889 12.3347C29.4143 12.9951 26.9508 13.7572 24.5778 14.7202C24.3808 14.8004 24.2092 14.8659 24.1971 14.8659C24.185 14.8659 24.248 14.7135 24.3358 14.5272C25.0491 13.0116 25.5097 11.4214 25.6293 10.0711C25.6401 9.94816 25.662 9.84845 25.6785 9.84845ZM25.023 10.652C24.7798 11.6483 24.1356 13.1272 23.3405 14.5173C23.2001 14.7623 23.075 14.9664 23.0606 14.9709C23.0458 14.9753 22.8647 14.88 22.6585 14.7595C21.8811 14.3048 21.0005 13.8745 20.0337 13.4758C19.7639 13.3646 19.5345 13.2655 19.5226 13.2545C19.4785 13.2131 21.6274 11.7906 22.7662 11.1071C23.6777 10.5603 25.1443 9.74304 25.17 9.76864C25.1915 9.78983 25.1013 10.3318 25.023 10.652V10.652ZM15.7241 30.007C14.4593 30.4868 13.0818 30.9671 11.5002 31.4784C10.8977 31.6732 10.3876 31.8378 10.3677 31.845C10.3076 31.8674 10.326 31.8306 10.5022 31.5553C11.2879 30.3284 12.4784 27.9286 13.1438 26.2312C13.2593 25.9369 13.3691 25.6418 13.3889 25.5761C13.3954 25.5538 13.4022 25.5354 13.4098 25.5189C13.5016 25.4805 13.5946 25.4421 13.6872 25.4037C13.7076 25.4434 13.7436 25.5302 13.7781 25.6237C13.9912 26.2027 14.4703 27.0629 14.8868 27.6132C15.3413 28.2138 15.9338 28.8539 16.4296 29.279C16.5886 29.4157 16.7373 29.5433 16.7585 29.5619C16.8009 29.5997 16.8154 29.5931 15.7241 30.007ZM16.6368 30.5922C16.6414 30.5968 16.5891 30.7371 16.5207 30.9027C15.9374 32.3129 15.1735 33.8509 14.1996 35.5787C13.9516 36.0184 13.7426 36.3775 13.7347 36.3765C13.7268 36.3758 13.5252 36.2569 13.2867 36.1107C11.8677 35.2424 10.6125 34.173 9.78824 33.1329L9.67064 32.9861L10.2824 32.8183C12.4646 32.2203 14.3152 31.5808 16.1551 30.7884C16.4157 30.676 16.6322 30.5876 16.6368 30.5922V30.5922ZM13.5993 12.9845C13.5725 12.7981 13.556 12.6396 13.5629 12.633C13.5823 12.6137 14.51 12.8311 15.0162 12.9731C15.7765 13.1867 17.395 13.7283 17.396 13.7697C17.396 13.7778 17.2176 13.9333 16.9999 14.1155C16.125 14.8475 15.2811 15.6129 14.2699 16.5893C13.9702 16.8788 13.7154 17.1143 13.7029 17.1143C13.6904 17.1143 13.6847 17.0721 13.6918 17.0205C13.8439 15.8965 13.8114 14.4535 13.5993 12.9845V12.9845ZM13.8485 11.4808C13.8485 11.4394 14.6758 10.6123 15.0315 10.2979C15.7108 9.69739 17.5384 8.27569 17.6033 8.2974C17.6413 8.31002 17.7134 8.53493 17.8412 9.04071C18.0858 10.009 18.1998 11.0963 18.1618 12.1025C18.1513 12.3824 18.1335 12.6425 18.1226 12.6806L18.1015 12.7506L17.7558 12.6386C17.043 12.4109 15.8783 12.0679 14.8801 11.7918C14.3133 11.6347 13.8485 11.4945 13.8485 11.4808V11.4808ZM15.8714 16.0474C16.502 15.5141 17.8293 14.4523 17.8454 14.4683C17.8635 14.4864 17.6381 15.3142 17.4954 15.7564C17.2216 16.6042 16.7587 17.67 16.3138 18.4722C16.2094 18.6606 16.0489 18.9365 15.9582 19.0855L15.7931 19.3556L15.4179 18.993C14.982 18.5703 14.6267 18.3078 14.1733 18.0747C13.9951 17.9829 13.8501 17.8981 13.85 17.8856C13.849 17.8306 14.9906 16.7925 15.8714 16.0474V16.0474ZM15.5537 20.8466C15.558 20.8439 15.5619 20.8428 15.5663 20.8423C15.5969 20.8385 15.6402 20.8953 15.8213 21.1657C16.2025 21.7357 16.4946 22.4958 16.5702 23.1145L16.5854 23.2476L15.6714 23.6018C14.0304 24.2385 12.5198 24.8664 11.4995 25.3336C11.214 25.4644 10.71 25.7049 10.3809 25.8698C10.0517 26.0341 9.78297 26.1635 9.78297 26.1566C9.78297 26.1498 9.98981 25.9939 10.2423 25.8106C12.2448 24.357 13.9714 22.7655 15.2723 21.1741C15.4115 21.0039 15.5378 20.8564 15.5537 20.8466V20.8466ZM15.9776 27.7643C15.4577 27.161 15.0465 26.5624 14.7468 25.9723C14.62 25.7226 14.431 25.2705 14.3843 25.117C15.3324 24.7316 16.319 24.3459 17.3526 23.9572C17.5757 23.8734 17.8054 23.789 18.0383 23.7041C18.0625 23.9782 18.0345 25.2284 17.9907 25.5957C17.8734 26.5739 17.6822 27.4787 17.376 28.5074C17.303 28.7532 17.2343 28.9655 17.2235 28.9778C17.1969 29.0089 16.2816 28.1172 15.9776 27.7643V27.7643ZM17.0488 23.0501C17.0318 23.056 17.0211 22.9587 17.0209 22.805C17.0193 21.9954 16.8144 21.1299 16.4525 20.3972C16.2995 20.0876 16.274 20.0127 16.3055 19.9842C16.4315 19.87 18.3807 18.7587 19.6095 18.0998C20.4534 17.6474 21.7496 16.9889 21.7653 17.0051C21.7811 17.0212 20.8598 18.3118 20.3121 19.0407C19.6569 19.9127 18.4901 21.3703 17.6873 22.3195C17.3517 22.7156 17.0645 23.0449 17.0488 23.0501V23.0501ZM21.1785 16.2617C19.9216 16.8905 18.8451 17.4844 17.721 18.1713C17.4003 18.3671 17.1317 18.5282 17.1229 18.5282C17.095 18.5282 17.106 18.5039 17.2854 18.1753C17.8842 17.0789 18.3668 15.7699 18.6449 14.4907C18.6697 14.3765 18.6994 14.3068 18.7204 14.3114C18.8134 14.3322 19.682 14.7364 20.3375 15.0647C20.9368 15.3648 21.845 15.8481 21.8903 15.8906C21.8955 15.896 21.576 16.0631 21.1785 16.2617V16.2617ZM22.0817 9.05879C23.0126 9.23709 24.3597 9.51908 24.4404 9.55315C24.4799 9.56941 24.3406 9.64524 23.8931 9.84698C22.1241 10.6448 20.8139 11.3566 19.5114 12.2284C19.1682 12.4581 18.883 12.6456 18.8771 12.6456C18.8714 12.6456 18.8661 12.4539 18.866 12.22C18.8652 10.9498 18.6116 9.66755 18.1464 8.58431C18.0964 8.46783 18.0587 8.36778 18.0638 8.3632C18.0845 8.34383 20.8329 8.81978 22.0817 9.05879V9.05879ZM17.556 5.14953C17.5843 5.15169 17.6142 5.20902 17.6975 5.39165C17.9257 5.89155 18.636 7.24641 18.8077 7.50842C18.822 7.5303 18.8384 7.54681 18.8396 7.55719C17.3735 7.32683 16.1579 7.1314 15.0159 6.94176C15.0253 6.92897 15.0866 6.88901 15.1636 6.84612C15.8653 6.45596 16.5731 5.9648 17.2034 5.43351C17.354 5.30657 17.4988 5.18559 17.5254 5.16345C17.5361 5.15446 17.5466 5.14875 17.556 5.14953V5.14953ZM12.6338 1.85397C13.5571 1.42455 16.071 0.377798 16.2541 0.344938C16.2599 0.343727 16.263 0.343727 16.2639 0.344938C16.2685 0.350472 16.2957 0.53734 16.3227 0.759228C16.4369 1.69426 16.6462 2.60127 16.9738 3.57746C17.2204 4.31299 17.224 4.26976 16.9303 4.18778C16.2477 3.9972 13.189 3.47231 10.9763 3.16576C10.6198 3.11647 10.3229 3.07263 10.3181 3.06788C10.2902 3.03969 11.9139 2.18897 12.6338 1.85397V1.85397ZM10.0663 3.4276C11.4868 3.91107 15.0476 4.59135 17.0156 4.75487C17.2378 4.7732 17.4244 4.79292 17.43 4.79819C17.4357 4.80329 17.2472 4.90412 17.0116 5.02207C16.062 5.49767 15.0171 6.07738 14.2941 6.52989C14.1268 6.6347 13.9716 6.72264 13.9005 6.75446C13.6832 6.71754 13.4659 6.68044 13.2483 6.64291L12.61 6.02308C11.4304 4.88129 10.5094 3.99798 10.1531 3.66419L9.80727 3.3394L10.0663 3.4276ZM7.91896 5.48141L7.92009 5.40566C7.92467 4.95454 8.4934 4.28904 9.45861 3.60807L9.54404 3.54927L10.4849 4.72383C11.0027 5.36978 11.5218 6.01097 11.6369 6.14898C11.7345 6.26581 11.8127 6.36681 11.8312 6.39768C11.1765 6.28388 10.4498 6.15408 9.90905 6.03761C9.85846 6.02628 9.80986 6.01547 9.76386 6.00475C9.57604 5.96186 9.41702 5.92459 9.27624 5.8906C8.90908 5.79937 8.487 5.68428 8.12693 5.56019C8.06061 5.53433 7.99056 5.50822 7.91896 5.48141V5.48141ZM12.4541 10.7052C12.4479 10.7115 12.373 10.5953 12.289 10.4476C11.5073 9.07297 10.2696 7.67522 8.838 6.55004C8.6596 6.40987 8.51467 6.2908 8.51467 6.28552C8.51891 6.2818 8.63046 6.31622 8.76666 6.3624C9.01769 6.44766 9.3487 6.54736 9.73394 6.65493C10.0041 6.73051 10.3008 6.80972 10.616 6.89023C11.0183 6.99304 11.351 7.08142 11.3552 7.08626C11.3997 7.13633 12.0754 9.29269 12.3057 10.12C12.3938 10.4358 12.4603 10.699 12.4541 10.7052V10.7052ZM13.1289 10.7779C12.886 9.84664 12.3836 8.47129 11.9333 7.50349C11.861 7.34775 11.8018 7.21043 11.8018 7.19824C11.8018 7.1966 11.8038 7.19582 11.8089 7.19547C11.8434 7.19305 11.9917 7.21796 12.1687 7.25704C13.3085 7.50911 15.3439 7.90196 16.6529 8.12212C16.8707 8.15895 17.0504 8.1983 17.0504 8.21032C17.0504 8.22234 16.9689 8.27387 16.8697 8.32386C16.6502 8.43419 15.7615 8.96617 15.4641 9.16515C14.7219 9.66193 14.0546 10.1937 13.5687 10.6771C13.3733 10.8713 13.2099 11.0298 13.2046 11.0298C13.1992 11.03 13.1651 10.9168 13.1289 10.7779V10.7779ZM11.7193 22.3599C12.161 21.6841 12.3831 21.3016 12.6152 20.8128C12.8214 20.3785 13.0269 19.863 13.1736 19.4143C13.2348 19.2281 13.2985 19.0756 13.3153 19.0756C13.3319 19.0756 13.4882 19.1541 13.6624 19.2505C14.089 19.487 14.4721 19.7468 14.8102 20.0289C14.8234 20.0397 14.6482 20.1828 14.4212 20.3466C13.7871 20.8041 12.8216 21.5328 12.2624 21.9777C11.6725 22.447 11.6528 22.4615 11.7193 22.3599ZM9.4261 25.3277C9.86443 24.8502 10.2 24.4537 10.5809 23.9589C10.832 23.6329 10.8798 23.5869 11.2475 23.3215C12.2376 22.607 14.5012 21.0736 14.5275 21.0998C14.554 21.1263 13.7886 21.9919 13.2733 22.5182C11.983 23.8347 10.7041 24.867 9.11964 25.8724C8.92136 25.9979 8.74011 26.112 8.7165 26.1257C8.67283 26.1511 8.73034 26.086 9.4261 25.3277ZM8.38834 28.1464C8.43434 27.9252 8.45518 27.824 8.49349 27.7623C9.69261 27.1637 10.9536 26.5769 12.2954 25.9947C12.2179 26.1879 11.9381 26.7708 11.6614 27.311C11.014 28.5733 10.3003 29.8163 9.35277 31.3326C9.18925 31.5948 9.0387 31.834 9.01829 31.8635C8.98448 31.9122 8.97065 31.8964 8.86696 31.6901C8.64006 31.2386 8.44999 30.6695 8.35176 30.1399C8.25457 29.616 8.27117 28.7089 8.38834 28.1464ZM1.2904 34.414C1.44286 33.4327 2.19145 32.144 3.23777 31.0624C3.83936 30.4408 4.33779 30.0379 5.07393 29.5905C5.39811 29.4046 5.79822 29.1824 6.30833 28.9035C6.62689 28.729 6.95064 28.5568 7.27751 28.3851C7.28573 28.4093 7.27422 28.484 7.24171 28.6716C7.21196 28.8427 7.17833 29.1668 7.16605 29.3895C7.11226 30.3679 7.27102 31.0901 7.75691 32.0778C7.89198 32.3525 7.99757 32.5812 7.99195 32.5857C7.94335 32.6266 3.51863 33.9213 2.12746 34.3022C1.71507 34.4152 1.35483 34.5144 1.32534 34.5237C1.27709 34.5379 1.27285 34.5274 1.2904 34.414V34.414ZM3.99665 39.1697L3.69702 38.9176C3.34551 38.6226 2.73026 37.9957 2.45113 37.648C1.87678 36.9318 1.48748 36.1784 1.3339 35.4861C1.26308 35.1668 1.26092 35.0041 1.32837 34.9841C1.42573 34.9545 3.21269 34.534 4.88844 34.1453C5.81924 33.9294 6.89547 33.6767 7.28097 33.5837C7.66638 33.4911 7.98555 33.4181 7.98935 33.4214C8.00578 33.4372 7.15351 34.6569 5.96365 36.322C5.54996 36.9009 5.06424 37.5833 4.88438 37.8386C4.70443 38.0935 4.43239 38.497 4.27821 38.7356L3.99665 39.1697ZM4.45574 39.5196L4.33251 39.4315L4.52569 39.1528C5.15262 38.2447 5.9403 37.2458 7.66439 35.1714L8.84612 33.749L9.06161 33.9898C10.0254 35.0636 11.0057 35.8646 12.2017 36.5559C12.4129 36.6782 12.5738 36.784 12.5601 36.7925C12.5102 36.8233 8.4244 38.2763 6.53462 38.9347C5.46876 39.3059 4.59349 39.6085 4.58856 39.6078C4.58389 39.6069 4.52362 39.5675 4.45574 39.5196V39.5196ZM10.1719 42.1629L10.0726 42.1362C9.8326 42.0711 8.14085 41.4738 7.69396 41.2964C7.14002 41.0762 6.56273 40.8108 6.13728 40.5808C5.6053 40.2937 4.93082 39.8672 4.98374 39.8501C4.99878 39.8455 5.91418 39.5948 7.01636 39.2941C9.94865 38.4951 11.5707 38.0358 12.6344 37.7039C12.8332 37.6421 12.999 37.5951 13.0025 37.5987C13.0113 37.6076 12.5366 38.3676 11.7021 39.6818C11.3495 40.2371 10.95 40.8692 10.8129 41.0861C10.6761 41.3036 10.4755 41.6335 10.3678 41.8214L10.1719 42.1629ZM10.7067 42.2861C10.7067 42.2716 10.8672 42.0685 11.0622 41.8353C12.025 40.684 12.9812 39.3977 13.7796 38.1813C13.9979 37.8488 14.1807 37.5712 14.1855 37.5653C14.1902 37.5594 14.4889 37.6655 14.8504 37.8006C15.7219 38.1265 16.4056 38.3388 17.3313 38.5707C18.4678 38.8552 20.1106 39.1398 21.0832 39.2215C21.2325 39.234 21.3086 39.2511 21.285 39.2663C21.2396 39.2948 20.2545 39.6241 19.5306 39.8514C18.3812 40.2129 14.8685 41.2505 12.0043 42.0745C11.473 42.2276 11.0187 42.3567 10.995 42.3617C10.9309 42.3751 10.7067 42.3163 10.7067 42.2861V42.2861ZM19.8861 43.5812C19.7974 43.7944 19.7643 43.846 19.7182 43.8441C19.6058 43.8394 18.0318 43.6193 17.0792 43.4747C15.4116 43.2214 12.6183 42.7335 11.9132 42.5731L11.7494 42.5363L12.7491 42.3109C14.8916 41.8286 15.9205 41.5697 16.9643 41.25C18.2809 40.8468 19.5845 40.3444 20.9012 39.7324C21.1094 39.6358 21.2869 39.5614 21.331 39.5516C21.3372 39.5503 21.3401 39.5503 21.3407 39.5516C21.3684 39.6213 20.2828 42.6277 19.8861 43.5812V43.5812ZM22.6315 35.4264C22.3955 36.2619 22.1978 36.9154 21.8304 38.0736C21.6688 38.5851 21.5295 39.0024 21.5215 39.0005C21.513 38.9982 21.4742 38.9906 21.4345 38.9834C19.4467 38.624 17.6662 38.1219 15.9985 37.4523C15.5318 37.2643 14.858 36.966 14.8223 36.9313C14.8103 36.9194 15.2133 36.7295 15.717 36.51C18.7631 35.1807 21.9191 33.6673 22.9981 33.0181C23.1281 32.9405 23.224 32.8948 23.2457 32.8995C23.249 32.9002 23.2504 32.9024 23.2504 32.905C23.2505 33.0535 22.9126 34.4301 22.6315 35.4264V35.4264ZM23.1315 32.583C22.2432 33.0758 19.3179 34.2928 16.3303 35.4138C15.8942 35.5775 15.4685 35.7378 15.3852 35.7706C15.3021 35.8036 15.234 35.8262 15.234 35.8196C15.234 35.8129 15.3573 35.5758 15.5083 35.2929C16.3472 33.7249 17.1843 31.8193 17.6141 30.4969C17.6578 30.3618 17.6966 30.2485 17.7008 30.2435C17.7049 30.2382 17.869 30.3263 18.0649 30.4394C19.4939 31.2661 21.488 32.0414 23.1886 32.4304L23.3423 32.4652L23.1315 32.583ZM23.5888 25.8685C23.8373 25.9769 23.8658 25.9349 23.2938 26.3239C22.0742 27.1518 20.5575 27.966 18.6963 28.7934C18.3719 28.9373 18.0969 29.0549 18.0858 29.0549C18.0747 29.0549 18.111 28.8906 18.1656 28.6883C18.6166 27.0198 18.8711 25.3362 18.8781 23.9859C18.8799 23.6554 18.8808 23.4877 18.8891 23.4004C18.9493 23.3793 19.0092 23.3583 19.07 23.3371C19.162 23.3826 19.3084 23.4701 19.5375 23.6133C20.9183 24.478 22.7878 25.5189 23.5888 25.8685V25.8685ZM19.7783 23.0929C20.9495 22.6947 22.2019 22.2928 23.4987 21.8973C23.5941 22.2865 23.7669 24.0203 23.8158 25.1699C23.8277 25.4466 23.8253 25.6237 23.8089 25.6237C23.7557 25.6237 22.6754 24.9889 21.9092 24.5079C21.2481 24.0929 20.0031 23.2656 19.7783 23.0929V23.0929ZM23.8563 26.6807C23.855 28.173 23.6957 30.2167 23.4648 31.7077C23.4239 31.9695 23.3888 32.1854 23.3862 32.1881C23.3833 32.1907 23.1946 32.1356 22.9673 32.0648C21.9632 31.7531 20.8744 31.2872 19.8918 30.749C19.2413 30.3925 18.3003 29.8152 18.3266 29.7886C18.3337 29.7814 18.611 29.6345 18.9426 29.4624C20.2564 28.7806 21.5112 28.0456 22.6023 27.3163C23.0113 27.0429 23.6238 26.6 23.7598 26.4804L23.8564 26.3966V26.6807H23.8563ZM26.6037 19.9394C23.5393 20.7896 21.172 21.5463 18.4096 22.5615C18.103 22.6743 17.8383 22.7676 17.8202 22.7676C17.7822 22.7676 17.7442 22.8023 18.4334 22.168C20.2002 20.5422 21.7611 18.7506 22.9272 17.0079L23.1624 16.6551L23.4887 16.8664C24.2368 17.3524 25.1232 18.0059 25.7988 18.5689C26.1773 18.8842 26.9133 19.5432 27.0644 19.7029L27.1453 19.7881L26.6037 19.9394ZM27.8187 19.5951C27.8122 19.5951 27.7268 19.4744 27.6282 19.3277C26.8771 18.2053 25.9857 17.2195 24.9222 16.3345C24.7237 16.1694 24.4996 15.9883 24.4254 15.9328C24.3505 15.8772 24.2901 15.826 24.2894 15.8181C24.2888 15.7997 25.4246 15.3126 26.2916 14.9599C27.8007 14.3456 29.8635 13.6104 31.4067 13.137C32.2208 12.8874 33.0855 12.6389 33.0981 12.6512C33.1119 12.6652 32.6676 13.3596 32.391 13.7558C31.9875 14.3339 31.4027 15.0927 30.0701 16.7685C29.3699 17.6487 28.5803 18.6447 28.3141 18.9819C28.0481 19.3188 27.8253 19.5951 27.8187 19.5951V19.5951ZM39.0089 17.6447C36.1915 17.8567 32.5898 18.4559 29.1221 19.2899C28.8865 19.3464 28.6829 19.3934 28.6697 19.3934C28.657 19.3934 28.9149 19.1347 29.2428 18.8194C31.2792 16.8616 32.2077 15.6254 33.3012 13.417C33.4638 13.088 33.6021 12.8043 33.6074 12.787C33.6081 12.7858 33.6088 12.7858 33.6107 12.7857C33.635 12.7806 33.7966 12.8589 33.9911 12.9703C35.6168 13.9016 37.21 15.0976 38.4628 16.3275C38.819 16.6772 39.691 17.5841 39.6779 17.5916C39.6745 17.5936 39.3736 17.6173 39.0089 17.6447Z" fill="black"/>
</svg>
