<svg width="56" height="50" viewBox="0 0 56 50" fill="none" xmlns="http://www.w3.org/2000/svg">
<ellipse cx="27.8959" cy="25" rx="27.5521" ry="25" fill="white"/>
<path d="M23.4875 39V29H32.3042V39C32.3042 40.1 33.2961 41 34.5084 41H41.1209C42.3331 41 43.325 40.1 43.325 39V25H47.0721C48.086 25 48.5709 23.86 47.7995 23.26L29.3727 8.2C28.5351 7.52 27.2567 7.52 26.4191 8.2L7.99226 23.26C7.24284 23.86 7.70572 25 8.71963 25H12.4667V39C12.4667 40.1 13.4586 41 14.6709 41H21.2834C22.4957 41 23.4875 40.1 23.4875 39Z" fill="#292D38"/>
</svg>
